<?xml version="1.0" encoding="UTF-8"?>
<!-- Created with Inkscape (http://www.inkscape.org/) -->
<svg width="894" height="105" version="1.1" viewBox="0 0 236.54 27.781" xmlns="http://www.w3.org/2000/svg">
 <g transform="translate(357.07 -214.71)">
  <g id="logo3-dark-theme" transform="matrix(.26458 0 0 .26458 -356.97 214.98)">
   <path d="m792.54 88.414c4.7954 5.0783 31.135 29.418 72.478 1.1699 29.895-23.281 29.148-73.756 26.276-88.999-1.0005 2.2183-35.725 78.259-98.754 87.829zm98.75-87.842c-0.36618-0.15127-38.828-5.395-76.85 19.094-23.611 15.207-26.732 37.464-25.654 52.295 55.273-6.1854 101.25-69.646 102.5-71.389z" fill="#97c554"/>
   <path d="m891.29 0.57154c-0.36618-0.15127-38.828-5.395-76.85 19.094-23.611 15.207-26.732 37.464-25.654 52.295 55.273-6.1854 101.25-69.646 102.5-71.389z" fill="#709b30"/>
   <path d="m62.263 85.445h-43.056v-22.932h43.056c10.764 0 16.263 5.148 16.263 11.817 0 6.435-5.382 11.115-16.263 11.115zm-1.404-35.217h-41.652v-19.305h41.652c11.349 0 15.795 3.978 15.795 9.477 0 5.031-5.148 9.828-15.795 9.828zm10.998 5.85c18.135-0.585 24.687-9.594 24.687-19.422 0-10.764-8.541-19.656-29.367-19.656h-66.573v82.134h68.562c17.082 0 29.835-7.137 29.835-22.464 0-10.881-7.137-20.124-27.144-20.592zm49.116-39.078v82.134h18.603v-82.134zm94.044 15.561h40.95v-15.561h-100.5v15.561h40.95v66.573h18.603zm56.838-15.561v82.134h18.603v-32.058h43.641v-13.455h-43.641v-22.464h70.902v-14.157zm104.57 0v82.134h18.603v-82.134zm62.22 20.007 61.659 62.127h21.06v-82.134h-18.369v59.202l-59.202-59.202h-23.634v82.134h18.486zm107.85-20.007v82.134h91.026v-13.806h-72.423v-22.581h43.407v-12.753h-43.407v-18.837h72.423v-14.157zm215.61 0h-24.57l-31.356 28.899-31.122-28.899h-24.921l43.758 40.482-45.396 41.652h24.57l32.877-30.303 32.76 30.303h25.038l-45.513-41.769z" fill="#ddd"/>
  </g>
 </g>
</svg>
