<svg xmlns="http://www.w3.org/2000/svg" viewBox="0 0 150 37.13">
  <defs/>
  <path fill="#231815" d="M46.49 3.61h3.07v9.16a7.09 7.09 0 014.26-1.45 6 6 0 014.82 2.22 8.53 8.53 0 011.87 5.72 8 8 0 01-2.23 6 8.17 8.17 0 01-6 2.23 17 17 0 01-3.17-.32 10.93 10.93 0 01-2.64-.81zm3.07 12.1v8.4a11.42 11.42 0 003.23.47 4.24 4.24 0 003.33-1.45 5.41 5.41 0 001.29-3.73 5.66 5.66 0 00-1.21-3.76 3.87 3.87 0 00-3.14-1.45 5.41 5.41 0 00-3.5 1.52zM65.49 5.13a1.8 1.8 0 011.3.52 1.76 1.76 0 01.54 1.28 1.84 1.84 0 01-1.84 1.82 1.72 1.72 0 01-1.25-.54 1.78 1.78 0 01-.54-1.28 1.69 1.69 0 01.54-1.25 1.7 1.7 0 011.25-.55zM64 11.66h3v15.52h-3zM69.3 14.12l5.77-5.67v3.21H80v2.76h-4.93V22c0 1.77.74 2.66 2.21 2.66a6.79 6.79 0 003.5-1.1v2.87a7.7 7.7 0 01-3.87 1 5.15 5.15 0 01-3.51-1.23 3.41 3.41 0 01-.72-.84 4.37 4.37 0 01-.48-1.21 13.65 13.65 0 01-.2-2.84v-6.89h-2.7zM83.44 3.61H96v3h-9.18v6.58H96v3h-9.18v11h-3.38zM99.27 3.61h3.07v23.57h-3.07zM116.31 11.66h3.44l-11 23.43h-3.43l5.28-11.24-6-12.19h3.5l4.19 8.77zM135.14 19.69h-10.92a5.11 5.11 0 001.49 3.54 4.88 4.88 0 003.56 1.31 9.25 9.25 0 005.6-1.89v3a10.26 10.26 0 01-2.81 1.35 11.77 11.77 0 01-3.27.41 7.4 7.4 0 01-4.15-1.06 7.86 7.86 0 01-2.54-2.86 8.83 8.83 0 01-.95-4.16 8.25 8.25 0 012-5.76 6.69 6.69 0 015.21-2.22 6.15 6.15 0 014.93 2.16 8.61 8.61 0 011.84 5.79zm-10.85-1.84h7.81A4.33 4.33 0 00131 15a3.53 3.53 0 00-2.63-1 3.8 3.8 0 00-2.71 1 5 5 0 00-1.37 2.85zM141.75 11.66v3.56l.17-.27c1.48-2.4 3-3.6 4.45-3.6a5.5 5.5 0 013.63 1.76l-1.62 2.7a4.57 4.57 0 00-3-1.52 3.18 3.18 0 00-2.57 1.42 5.31 5.31 0 00-1.09 3.36v8.11h-3.09V11.66z"/>
  <path fill="#468ccb" d="M0 0h11.23v11.23H0zM12.95 0h11.23v11.23H12.95zM0 12.95h11.23v11.23H0zM0 25.89h11.23v11.23H0z"/>
  <circle cx="18.56" cy="18.56" r="5.57" fill="#ee7f4a"/>
  <path fill="#468ccb" d="M25.89 0h11.23v11.23H25.89z"/>
</svg>